<svg id="Layer_1" data-name="Layer 1" xmlns="http://www.w3.org/2000/svg" viewBox="0 0 452.765 462.067"><defs><style>.cls-1{fill:#e8e8e8;}</style></defs><title>logo</title><path class="cls-1" d="M372.389,320.584c32,0,64,.161,95.989-.155,5.488-.054,9.655,6.036,6.73,11.059-3.85,6.612-8.094,12.994-11.882,19.644q-9.615,16.878-20.167,33.192c-6.82,10.589-12.626,21.907-19.938,32.149-4.528,6.342-11.733,9.023-19.575,9.051-22.386.079-44.773-.025-67.159.092a19.086,19.086,0,0,0-7.458,1.586c-4.318,1.922-6.266,5.693-6.3,10.354-.059,9.271,0,18.542-.025,27.813a15.558,15.558,0,0,1-12.771,15.594c-19.115,3.515-38.328,5.767-57.836,4.876-16.642-.76-33.116-2.906-48.954-7.924-22.256-7.05-44.05-15.586-63.17-29.3a341.985,341.985,0,0,1-32.9-26.943,193.031,193.031,0,0,1-29.935-35.658A235.442,235.442,0,0,1,37.315,253.572a231.706,231.706,0,0,1,15.978-83.886,237.02,237.02,0,0,1,35.612-61.477c9.511-11.928,20.531-22.091,31.8-32.2,14.529-13.035,31.4-22.124,48.578-30.97,18.036-9.29,37.248-14.6,57.036-17.9,19.084-3.189,38.312-4.645,57.6-1.131a174.282,174.282,0,0,1,49.2,16.342C351.09,51.665,368.8,61.67,385.8,72.643,401,82.45,415.129,93.927,429.634,104.8a61.617,61.617,0,0,1,8.31,7.708c1.062,1.157,1.963,3.247,1.642,4.606-.21.889-2.747,1.737-4.243,1.738q-65.287.052-130.574-.081c-9.37-.005-18.74.168-28.11.271-8.944.1-13.627,4.7-13.631,13.605q-.038,87.341,0,174.683c0,8.257,4.959,13.2,13.375,13.213q47.995.073,95.989.02ZM155.459,220.77h-.012c0,9.723-.02,19.446.006,29.169a12.477,12.477,0,0,0,12.72,12.806q27.643.031,55.287-.006a12.862,12.862,0,0,0,13-12.627q.129-29.338-.022-58.678A11.439,11.439,0,0,0,224.6,179.691q-28.612-.074-57.225-.012A11.942,11.942,0,0,0,155.464,191.6C155.442,201.323,155.459,211.046,155.459,220.77Z" transform="translate(-37.31 -23.967)"/><path class="cls-1" d="M414.389,264.617c-20.581,0-41.166-.244-61.741.109-9.48.163-14.488-5.823-14.38-14.274.263-20.691.3-41.39-.027-62.079A12.166,12.166,0,0,1,350.8,175.64c37.542.152,75.085.071,112.628.135,8.22.014,14.008,4.05,15.751,12.055,3.3,15.144,6.192,30.386,8.8,45.664,1.229,7.191,1.428,14.56,2.063,21.851a7.485,7.485,0,0,1-5.885,8.259,31.675,31.675,0,0,1-7.345.981c-20.807.075-41.614.043-62.421.043Z" transform="translate(-37.31 -23.967)"/></svg>